# xmcd CD database file
#
# Track frame offsets:
#	150
#	27692
#	63090
#	85832
#	110835
#	134252
#	151502
#	162975
#	183985
#	201877
#	226067
#
# Disc length: 3349 seconds
#
# Revision: 0
# Processed by: cddbd v1.5.2PL0 Copyright (c) Steve Scherf et al.
# Submitted via: CDex 1.51
#
DISCID=880d130b
DTITLE=Michael Gerber - This is Michael Gerber
DYEAR=1994
DGENRE=Jazz
TTITLE0=Geishu
TTITLE1=Madrid surrender
TTITLE2=Las Olas
TTITLE3=Equinox
TTITLE4=She'll let me know
TTITLE5=Irregardless of you
TTITLE6=Donna Lee
TTITLE7=Continuum
TTITLE8=Sara
TTITLE9=I hear a rhapsody
TTITLE10=Reachin'
EXTD=YEAR: 1994
EXTT0=
EXTT1=
EXTT2=
EXTT3=
EXTT4=
EXTT5=
EXTT6=
EXTT7=
EXTT8=
EXTT9=
EXTT10=
PLAYORDER=
